# This file uses centimeters as units for non-parametric coordinates.

mtllib tree_stam.mtl
g default
v -0.980635 -0.096136 -0.385235
v -0.537637 -0.096136 -0.684257
v -0.012950 -0.096136 -0.582451
v -1.082441 -0.096136 0.139453
v -0.783419 -0.096136 0.582451
v -0.258731 -0.096136 0.684257
v 0.286072 -0.096136 -0.139453
v 0.184266 -0.096136 0.385235
v -0.725812 7.124804 -0.096550
v -0.704436 7.143546 -0.202557
v -0.290252 6.840070 -0.337676
v -0.188201 6.849138 -0.317483
v -0.072864 6.647878 -0.161815
v -0.016152 6.647054 -0.077859
v -0.053056 6.628832 0.116378
v -0.073197 6.652447 0.214948
v -0.366791 6.661868 0.372381
v -0.374396 6.668772 0.377757
v -0.416849 6.702628 0.360913
v -0.353001 6.694549 0.373650
v -0.353577 6.693181 0.373596
v -0.356315 10.587101 0.205445
v -0.513849 10.587101 0.174877
v -3.139315 10.158678 0.300698
v -3.176945 10.120396 0.330968
v -3.184680 10.104539 0.390016
v -3.093830 10.196959 0.316938
v -3.157989 10.120396 0.443251
v -3.112509 10.158678 0.459489
v -3.067139 10.212814 0.370173
v -3.074875 10.196959 0.429219
v -0.440054 10.587101 -0.205445
v -0.573062 10.587101 -0.115665
v -0.603630 10.587101 0.041869
v -0.282520 10.587101 -0.174877
v -0.192741 10.587101 -0.041869
v -0.223307 10.587101 0.115665
v 3.089951 10.873322 -0.506488
v 3.035761 10.922513 -0.468183
v 3.020807 10.942889 -0.389538
v 3.151636 10.824128 -0.482014
v 3.184680 10.803751 -0.409099
v 3.169726 10.824128 -0.330454
v 3.053851 10.922513 -0.316623
v 3.115536 10.873322 -0.292149
v -0.681033 7.120597 -0.219523
v -0.515693 7.193376 -0.327416
v -0.561742 7.173107 -0.297368
v -0.514464 7.193917 -0.328219
v -0.648178 7.606846 -0.216909
v -0.562301 7.341643 -0.288398
v -0.700251 7.215811 0.153370
v -0.741218 7.114972 -0.019336
v -0.755104 7.207414 0.072740
v -0.685823 7.125294 -0.216051
v -0.740730 7.111724 -0.022571
v -0.648038 7.438279 0.213917
v -0.699039 7.220973 0.154775
v -0.691234 7.254229 0.163826
v -0.653392 7.622947 -0.212569
v -0.684508 7.714993 0.138988
v -0.649346 7.448196 0.211232
v -0.671831 7.618803 0.165035
v -0.709614 7.810892 -0.027824
v -0.689877 7.724397 0.130324
v -0.728872 7.792705 0.067394
v -0.708017 7.801833 -0.038062
v -0.292383 6.893391 -0.335794
v -0.194883 7.113978 -0.307380
v -0.702937 7.773011 -0.070635
v -0.684428 7.667993 -0.189323
v -0.099214 6.626527 0.233831
v -0.300245 6.755712 0.362939
v -0.236147 6.714524 0.321775
v -0.301541 6.756546 0.363772
v -0.139785 7.313794 0.226177
v -0.235251 6.984912 0.307384
v -0.115801 7.454647 -0.164490
v -0.057381 7.566953 -0.069456
v -0.083343 7.487119 0.082065
v -0.101160 7.385371 0.196455
v -0.312577 6.847703 -0.341679
v -0.317002 6.837692 -0.342969
v -0.141449 6.652165 -0.263102
v -0.140666 6.648864 -0.262190
v -0.023510 6.597595 -0.028967
v -0.023941 6.594698 -0.026103
v -0.095197 6.630530 0.230915
v -0.157550 7.374393 -0.232402
v -0.163576 7.362810 -0.242203
v -0.133694 7.334774 0.220996
v -0.069325 7.567182 -0.007945
v -0.067303 7.578729 -0.020926
vt 0.580294 0.080294
vt 0.510000 0.250000
vt 0.580294 0.419706
vt 0.750000 0.010000
vt 0.919706 0.080294
vt 0.990000 0.250000
vt 0.750000 0.490000
vt 0.919706 0.419706
vt 0.375000 0.500000
vt 0.459489 0.837957
vt 0.375000 0.838834
vt 0.125000 0.500000
vt 0.206158 0.824630
vt 0.125000 0.825055
vt 0.000000 0.500000
vt 0.078909 0.815635
vt 0.000000 0.815597
vt 0.875000 0.500000
vt 0.953686 0.814744
vt 0.875000 0.815849
vt 0.742849 0.487038
vt 0.750000 0.490000
vt 0.785068 0.475474
vt 1.000000 0.500000
vt 1.000000 0.503065
vt 0.974170 0.500000
vt 0.000734 0.502937
vt 0.000000 0.500000
vt 0.005267 0.500000
vt -0.000000 0.503065
vt 0.625000 0.500000
vt 0.750000 1.000000
vt 0.625000 1.000000
vt 0.250000 0.010000
vt 0.419706 0.080294
vt 0.490000 0.250000
vt 0.080294 0.080294
vt 0.419706 0.419706
vt 0.250000 0.490000
vt 0.010000 0.250000
vt 0.080294 0.419706
vt 0.010000 0.250000
vt 0.080294 0.080294
vt 0.490000 0.250000
vt 0.250000 0.010000
vt 0.080294 0.419706
vt 0.419706 0.080294
vt 0.250000 0.490000
vt 0.419706 0.419706
vt 0.250000 0.010000
vt 0.419706 0.080294
vt 0.490000 0.250000
vt 0.080294 0.080294
vt 0.010000 0.250000
vt 0.080294 0.419706
vt 0.419706 0.419706
vt 0.250000 0.490000
vt 0.625000 0.520209
vt 0.625000 1.000000
vt 0.502986 0.511944
vt 0.536968 0.514246
vt 0.500000 0.511883
vt 0.500000 1.000000
vt 0.390364 0.561456
vt 0.460778 0.529617
vt 0.875000 0.535438
vt 0.875000 1.000000
vt 0.756824 0.527295
vt 0.817023 0.538012
vt 0.630267 0.521067
vt 0.750000 1.000000
vt 0.750000 0.526919
vt 1.000000 0.552114
vt 1.000000 1.000000
vt 0.883956 0.535825
vt 0.901715 0.538318
vt 0.375000 1.000000
vt 0.375000 0.563389
vt 0.125000 0.579002
vt 0.125000 1.000000
vt 0.013269 0.553078
vt 0.084717 0.569655
vt 0.250000 0.587406
vt 0.250000 1.000000
vt 0.145041 0.580166
vt 0.190224 0.588620
vt 0.271580 0.586320
vt 0.000000 1.000000
vt -0.000000 0.552114
vt 0.206781 0.827126
vt 0.250000 1.000000
vt 0.125000 1.000000
vt 0.125000 0.837450
vt 0.467074 0.868294
vt 0.500000 1.000000
vt 0.375000 1.000000
vt 0.375000 0.863379
vt 0.125000 0.514076
vt 0.125000 1.000000
vt 0.002615 0.510461
vt 0.041636 0.511614
vt 1.000000 0.510438
vt 1.000000 1.000000
vt 0.889885 0.559542
vt 0.954874 0.530561
vt 0.088348 0.853394
vt 0.000000 1.000000
vt 0.000000 0.858650
vt 0.963728 0.854914
vt 1.000000 1.000000
vt 0.875000 1.000000
vt 0.875000 0.850152
vt 0.505258 0.521032
vt 0.625000 1.000000
vt 0.500000 1.000000
vt 0.500000 0.520088
vt 0.379213 0.516852
vt 0.375000 1.000000
vt 0.375000 0.516662
vt 0.254574 0.518296
vt 0.250000 1.000000
vt 0.250000 0.518049
vt 0.128652 0.514609
vt 0.000000 1.000000
vt 0.000000 0.510438
vt 0.641476 0.565906
vt 0.750000 1.000000
vt 0.625000 0.564818
vt 0.875000 1.000000
vt 0.875000 0.561390
vt 0.770720 0.582881
vt 0.750000 0.583892
vt 0.750000 0.500000
vt 0.727125 0.818198
vt 0.742319 0.817820
vt 0.500000 0.500000
vt 0.586003 0.844014
vt 0.577212 0.842457
vt 0.575847 0.842216
vt 0.500000 0.841823
vt 0.636995 0.524402
vt 0.703552 0.525884
vt 0.291590 0.582866
vt 0.364501 0.570277
vt 0.337026 0.848105
vt 0.364113 0.860517
vt 0.365758 0.861271
vt 0.106647 0.849638
vt 0.109288 0.849096
vt 0.500000 0.869216
vt 0.474896 0.869643
vt 0.477355 0.870067
vt 0.456678 0.528202
vt 0.491003 0.521773
vt 0.278755 0.522501
vt 0.322591 0.519842
vt 0.513217 0.525342
vt 0.551645 0.546152
vt 0.832852 0.831409
vt 0.863330 0.846802
vt 0.865275 0.847784
vt 1.000000 0.858650
vt 0.985346 0.858661
vt 0.988464 0.859201
vt 0.135166 0.517523
vt 0.182124 0.517738
vt 0.677071 0.573442
vt 0.726881 0.583988
vt 0.812629 0.575875
vt 0.865889 0.566971
vt 0.369551 0.837979
vt 0.368149 0.837760
vt 0.335054 0.840217
vt 0.250000 0.500000
vt 0.477863 0.837496
vt 0.477085 0.837344
vt 0.107535 0.815836
vt 0.107242 0.815681
vt 0.742179 0.817756
vt 0.738963 0.816290
vt 1.000000 0.500000
vt 1.000000 0.815597
vt 0.988244 0.813282
vt 0.987556 0.813146
vt 0.868557 0.814823
vt 0.867380 0.814636
vt 0.829689 0.818754
vt 0.590269 0.861077
vt 0.558555 0.866019
vt 0.566617 0.865579
vt 0.211493 0.824988
vt 0.212526 0.824519
vt 0.601468 0.853092
vt 0.602119 0.852628
vt 0.291953 0.841166
vt 0.290802 0.841191
vt 0.769805 0.820682
vt 0.768594 0.820721
vn 0.000000 -1.000000 0.000000
vn 0.000000 -1.000000 0.000000
vn 0.000000 -1.000000 0.000000
vn 0.000000 -1.000000 0.000000
vn 0.000000 -1.000000 0.000000
vn 0.000000 -1.000000 0.000000
vn 0.000000 -1.000000 0.000000
vn 0.000000 -1.000000 0.000000
vn -0.980818 0.042201 -0.190303
vn -0.980818 0.042201 -0.190303
vn -0.980818 0.042201 -0.190303
vn 0.190303 0.042201 -0.980818
vn 0.190303 0.042201 -0.980818
vn 0.207902 -0.214202 -0.954408
vn 0.828095 0.042200 -0.558997
vn 0.828095 0.042200 -0.558997
vn 0.828095 0.042200 -0.558997
vn 0.980818 0.042201 0.190303
vn 0.980818 0.042201 0.190303
vn 0.980818 0.042201 0.190303
vn -0.640033 -0.764539 0.076404
vn -0.640033 -0.764539 0.076404
vn -0.640033 -0.764539 0.076404
vn -0.153798 0.278696 0.947985
vn -0.190303 0.042201 0.980818
vn -0.190303 0.042201 0.980818
vn 0.426685 -0.214193 0.878670
vn 0.426685 -0.214193 0.878670
vn 0.426685 -0.214193 0.878670
vn 0.426685 -0.214193 0.878670
vn -0.190303 0.042201 0.980818
vn -0.190303 0.042201 0.980818
vn -0.190303 0.042201 0.980818
vn -0.663004 0.740205 0.111901
vn -0.663004 0.740205 0.111901
vn -0.663004 0.740205 0.111901
vn -0.663004 0.740205 0.111901
vn -0.663004 0.740205 0.111901
vn -0.663004 0.740205 0.111901
vn -0.663004 0.740205 0.111901
vn -0.663004 0.740205 0.111901
vn 0.000000 1.000000 0.000000
vn 0.000000 1.000000 0.000000
vn 0.000000 1.000000 0.000000
vn 0.000000 1.000000 0.000000
vn 0.000000 1.000000 0.000000
vn 0.000000 1.000000 0.000000
vn 0.000000 1.000000 0.000000
vn 0.000000 1.000000 0.000000
vn 0.639984 0.764581 -0.076398
vn 0.639984 0.764581 -0.076398
vn 0.639984 0.764581 -0.076398
vn 0.639984 0.764581 -0.076398
vn 0.639984 0.764581 -0.076398
vn 0.639984 0.764581 -0.076398
vn 0.639984 0.764581 -0.076398
vn 0.639984 0.764581 -0.076398
vn -0.558997 0.042200 -0.828095
vn -0.460721 -0.225810 -0.858339
vn -0.558997 0.042200 -0.828095
vn -0.558997 0.042200 -0.828095
vn 0.097398 0.288293 -0.952576
vn 0.097398 0.288293 -0.952576
vn 0.097398 0.288293 -0.952576
vn 0.097398 0.288293 -0.952576
vn -0.638073 -0.589375 0.495479
vn -0.638073 -0.589375 0.495479
vn -0.638073 -0.589375 0.495479
vn -0.638073 -0.589375 0.495479
vn -0.765380 -0.589385 -0.258493
vn -0.765380 -0.589385 -0.258493
vn -0.765380 -0.589385 -0.258493
vn -0.765380 -0.589385 -0.258493
vn -0.460721 -0.225810 -0.858339
vn -0.558997 0.042200 -0.828095
vn -0.638073 -0.589375 0.495479
vn -0.638073 -0.589375 0.495479
vn -0.153403 -0.225804 0.962019
vn -0.153403 -0.225804 0.962019
vn -0.153403 -0.225804 0.962019
vn -0.153403 -0.225804 0.962019
vn 0.097398 0.288293 -0.952576
vn 0.097398 0.288293 -0.952576
vn -0.153403 -0.225804 0.962019
vn -0.153403 -0.225804 0.962019
vn 0.404705 0.288303 0.867810
vn 0.404705 0.288303 0.867810
vn 0.404705 0.288303 0.867810
vn 0.404705 0.288303 0.867810
vn 0.709384 0.651885 0.267994
vn 0.709384 0.651885 0.267994
vn 0.709384 0.651885 0.267994
vn 0.709384 0.651885 0.267994
vn 0.582097 0.651897 -0.485998
vn 0.582097 0.651897 -0.485998
vn 0.582097 0.651897 -0.485998
vn 0.582097 0.651897 -0.485998
vn 0.404705 0.288303 0.867810
vn 0.404705 0.288303 0.867810
vn 0.709384 0.651885 0.267994
vn 0.709384 0.651885 0.267994
vn 0.190303 0.042201 -0.980818
vn 0.190303 0.042201 -0.980818
vn 0.190303 0.042201 -0.980818
vn 0.190303 0.042201 -0.980818
vn -0.980818 0.042201 -0.190303
vn -0.980818 0.042201 -0.190303
vn -0.980818 0.042201 -0.190303
vn -0.980818 0.042201 -0.190303
vn 0.558997 0.042200 0.828095
vn 0.426685 -0.214193 0.878670
vn 0.558997 0.042200 0.828095
vn 0.558997 0.042200 0.828095
vn -0.153798 0.278696 0.947985
vn -0.153798 0.278696 0.947985
vn -0.153798 0.278696 0.947985
vn -0.153798 0.278696 0.947985
vn 0.828095 0.042200 -0.558997
vn 0.828095 0.042200 -0.558997
vn 0.828095 0.042200 -0.558997
vn 0.828095 0.042200 -0.558997
vn 0.980818 0.042201 0.190303
vn 0.980818 0.042201 0.190303
vn 0.980818 0.042201 0.190303
vn 0.980818 0.042201 0.190303
vn -0.372617 0.278713 -0.885141
vn -0.372617 0.278713 -0.885141
vn -0.372617 0.278713 -0.885141
vn -0.372617 0.278713 -0.885141
vn 0.207902 -0.214202 -0.954408
vn 0.207902 -0.214202 -0.954408
vn 0.207902 -0.214202 -0.954408
vn 0.207902 -0.214202 -0.954408
vn 0.682480 -0.562683 -0.466486
vn 0.682480 -0.562683 -0.466486
vn 0.682480 -0.562683 -0.466486
vn 0.682480 -0.562683 -0.466486
vn 0.773082 -0.562687 0.292793
vn 0.773082 -0.562687 0.292793
vn 0.773082 -0.562687 0.292793
vn 0.773082 -0.562687 0.292793
vn 0.426685 -0.214193 0.878670
vn 0.558997 0.042200 0.828095
vn -0.719005 0.627304 -0.299202
vn -0.719005 0.627304 -0.299202
vn -0.719005 0.627304 -0.299202
vn -0.719005 0.627304 -0.299202
vn -0.153798 0.278696 0.947985
vn -0.153798 0.278696 0.947985
vn -0.628374 0.627274 0.460081
vn -0.628374 0.627274 0.460081
vn -0.628374 0.627274 0.460081
vn -0.628374 0.627274 0.460081
vn -0.190303 0.042201 0.980818
vn -0.828095 0.042200 0.558997
vn -0.828095 0.042200 0.558997
vn -0.828095 0.042200 0.558997
vn -0.828095 0.042200 0.558997
vn -0.828095 0.042200 0.558997
vn -0.765380 -0.589385 -0.258493
vn -0.765380 -0.589385 -0.258493
vn -0.765380 -0.589385 -0.258493
vn 0.582097 0.651897 -0.485998
vn 0.582097 0.651897 -0.485998
vn 0.582097 0.651897 -0.485998
vn -0.558997 0.042200 -0.828095
vn -0.558997 0.042200 -0.828095
vn -0.558997 0.042200 -0.828095
vn -0.558997 0.042200 -0.828095
vn -0.558997 0.042200 -0.828095
vn 0.828095 0.042200 -0.558997
vn 0.828095 0.042200 -0.558997
vn 0.828095 0.042200 -0.558997
vn -0.980818 0.042201 -0.190303
vn -0.980818 0.042201 -0.190303
vn -0.980818 0.042201 -0.190303
vn 0.190303 0.042201 -0.980818
vn 0.682480 -0.562683 -0.466486
vn 0.682480 -0.562683 -0.466486
vn 0.682480 -0.562683 -0.466486
vn -0.372617 0.278713 -0.885141
vn -0.372617 0.278713 -0.885141
vn -0.372617 0.278713 -0.885141
vn 0.558997 0.042200 0.828095
vn 0.558997 0.042200 0.828095
vn 0.558997 0.042200 0.828095
vn 0.558997 0.042200 0.828095
vn 0.558997 0.042200 0.828095
vn 0.980818 0.042201 0.190303
vn 0.980818 0.042201 0.190303
vn 0.980818 0.042201 0.190303
vn 0.773082 -0.562687 0.292793
vn 0.773082 -0.562687 0.292793
vn 0.773082 -0.562687 0.292793
vn -0.719005 0.627304 -0.299202
vn -0.719005 0.627304 -0.299202
vn -0.719005 0.627304 -0.299202
vn -0.628374 0.627274 0.460081
vn -0.628374 0.627274 0.460081
vn -0.628374 0.627274 0.460081
vn -0.558997 0.042200 -0.828095
vn -0.558997 0.042200 -0.828095
vn -0.558997 0.042200 -0.828095
vn -0.558997 0.042200 -0.828095
vn -0.980818 0.042201 -0.190303
vn -0.980818 0.042201 -0.190303
vn -0.980818 0.042201 -0.190303
vn -0.980818 0.042201 -0.190303
vn 0.828095 0.042200 -0.558997
vn 0.828095 0.042200 -0.558997
vn 0.828095 0.042200 -0.558997
vn 0.828095 0.042200 -0.558997
vn -0.190303 0.042201 0.980818
vn -0.190303 0.042201 0.980818
vn 0.980818 0.042201 0.190303
vn 0.980818 0.042201 0.190303
vn 0.980818 0.042201 0.190303
vn 0.980818 0.042201 0.190303
vn 0.558997 0.042200 0.828095
vn 0.558997 0.042200 0.828095
vn 0.558997 0.042200 0.828095
vn 0.558997 0.042200 0.828095
vn -0.828095 0.042200 0.558997
vn -0.828095 0.042200 0.558997
vn -0.828095 0.042200 0.558997
vn -0.828095 0.042200 0.558997
vn -0.828095 0.042200 0.558997
vn -0.828095 0.042200 0.558997
vn 0.190303 0.042201 -0.980818
vn 0.190303 0.042201 -0.980818
vn -0.828095 0.042200 0.558997
vn -0.828095 0.042200 0.558997
vn -0.828095 0.042200 0.558997
vn -0.558997 0.042200 -0.828095
vn 0.558997 0.042200 0.828095
g polySurface27
usemtl initialShadingGroup
f 1/1/1 2/2/2 3/3/3
f 4/4/4 1/1/1 3/3/3
f 5/5/5 4/4/4 3/3/3
f 6/6/6 5/5/5 3/3/3
f 7/7/7 8/8/8 3/3/3
f 8/8/8 6/6/6 3/3/3
f 1/9/9 9/10/10 10/11/11
f 3/12/12 11/13/13 12/14/14
f 7/15/15 13/16/16 14/17/17
f 8/18/18 15/19/19 16/20/20
f 17/21/21 18/22/22 19/23/23
f 18/24/24 20/25/25 19/26/26
f 21/27/27 18/28/28 17/29/29
f 18/28/28 21/27/27 20/30/30
f 5/31/31 22/32/32 23/33/33
f 24/34/34 25/35/35 26/36/36
f 27/37/37 24/34/34 26/36/36
f 28/38/38 29/39/39 26/36/36
f 30/40/40 27/37/37 26/36/36
f 29/39/39 31/41/41 26/36/36
f 31/41/41 30/40/40 26/36/36
f 32/42/42 33/43/43 22/44/44
f 33/43/43 34/45/45 22/44/44
f 35/46/46 32/42/42 22/44/44
f 34/45/45 23/47/47 22/44/44
f 36/48/48 35/46/46 22/44/44
f 37/49/49 36/48/48 22/44/44
f 38/50/50 39/51/51 40/52/52
f 41/53/53 38/50/50 40/52/52
f 42/54/54 41/53/53 40/52/52
f 43/55/55 42/54/54 40/52/52
f 44/56/56 45/57/57 40/52/52
f 45/57/57 43/55/55 40/52/52
f 46/58/58 25/59/59 47/60/60 48/61/61
f 49/62/62 24/63/63 50/64/64 51/65/65
f 52/66/66 28/67/67 53/68/68 54/69/69
f 55/70/70 26/71/71 25/59/72 46/58/73
f 47/60/60 25/59/59 24/63/74 49/62/75
f 53/68/68 28/67/67 26/71/76 56/72/77
f 57/73/78 29/74/79 58/75/80 59/76/81
f 50/64/64 24/63/63 27/77/82 60/78/83
f 58/75/80 29/74/79 28/67/84 52/66/85
f 61/79/86 31/80/87 62/81/88 63/82/89
f 64/83/90 30/84/91 65/85/92 66/86/93
f 67/87/94 27/77/95 30/84/96 64/83/97
f 62/81/88 31/80/87 29/88/98 57/89/99
f 65/85/92 30/84/91 31/80/100 61/79/101
f 68/90/102 32/91/103 35/92/104 69/93/105
f 70/94/106 34/95/107 33/96/108 71/97/109
f 72/98/110 43/99/111 73/100/112 74/101/113
f 75/102/114 45/103/115 76/104/116 77/105/117
f 78/106/118 35/92/119 36/107/120 79/108/121
f 80/109/122 36/110/123 37/111/124 81/112/125
f 82/113/126 39/114/127 38/115/128 83/116/129
f 84/117/130 38/115/131 41/118/132 85/119/133
f 86/120/134 41/118/135 42/121/136 87/122/137
f 88/123/138 42/121/139 43/99/140 72/98/141
f 73/100/112 43/99/111 45/124/142 75/125/143
f 89/126/144 40/127/145 39/114/146 90/128/147
f 76/104/116 45/103/115 44/129/148 91/130/149
f 92/131/150 44/129/151 40/127/152 93/132/153
f 6/133/154 22/32/32 5/31/31 19/134/26 20/135/25
f 4/136/155 59/137/156 58/138/157 52/139/158 54/140/159
f 56/72/160 26/71/71 55/70/70 10/141/161 9/142/162
f 60/78/163 27/77/95 67/87/94 70/143/164 71/144/165
f 71/97/166 33/96/167 51/145/168 50/146/169 60/147/170
f 69/93/171 35/92/119 78/106/118 89/148/172 90/149/173
f 66/150/174 34/95/107 70/94/106 67/151/175 64/152/176
f 83/116/177 38/115/131 84/117/130 12/153/14 11/154/13
f 85/119/178 41/118/135 86/120/134 14/155/179 13/156/180
f 90/128/181 39/114/127 82/113/126 68/157/182 69/158/183
f 81/112/184 37/111/185 77/159/186 76/160/187 91/161/188
f 79/162/189 36/110/123 80/109/122 92/163/190 93/164/191
f 87/122/192 42/121/139 88/123/138 16/165/193 15/166/194
f 93/132/195 40/127/145 89/126/144 78/167/196 79/168/197
f 91/130/198 44/129/151 92/131/150 80/169/199 81/170/200
f 1/9/201 10/11/202 55/171/203 46/172/58 48/173/61 2/174/204
f 4/136/205 54/140/206 53/175/207 56/176/208 9/10/10 1/9/9
f 3/12/209 12/14/210 84/177/211 85/178/212 13/16/16 7/15/15
f 6/133/154 20/135/25 21/179/213 17/180/214 19/134/26 5/31/31
f 7/181/215 14/182/216 86/183/217 87/184/218 15/19/19 8/18/18
f 8/18/219 16/20/220 88/185/221 72/186/110 74/187/113 6/133/222
f 63/188/223 23/33/224 34/95/225 66/150/226 65/189/227 61/190/228
f 2/174/229 32/91/103 68/90/102 82/191/230 83/192/177 11/13/13 3/12/12
f 5/31/231 23/33/224 63/188/223 62/193/232 57/194/233 59/137/156 4/136/155
f 2/174/204 48/173/61 47/195/60 49/196/75 51/145/168 33/96/167 32/91/234
f 6/133/222 74/187/113 73/197/112 75/198/143 77/159/186 37/111/185 22/32/235
