# This file uses centimeters as units for non-parametric coordinates.

mtllib tree_krone.mtl
g default
v -0.000000 8.409890 0.000000
v -2.163346 11.232484 4.211713
v -4.976111 11.232482 -0.426159
v -0.912034 11.232504 -4.475107
v 4.412452 11.232482 -2.339560
v 3.639050 11.232484 3.029176
v -4.412453 15.799652 2.339560
v -3.639051 15.799650 -3.029176
v 2.163345 15.799650 -4.211713
v 4.976107 15.799652 0.426159
v 0.912033 15.799628 4.475107
v -0.000000 18.622245 0.000000
v -2.924863 9.172474 -0.250488
v -1.271574 9.172477 2.475564
v -4.196462 10.831557 2.225092
v 0.867393 10.831566 4.256070
v 2.138965 9.172477 1.780492
v -0.536080 9.172488 -2.630398
v -3.460955 10.831564 -2.880905
v 2.593554 9.172474 -1.375149
v 2.057480 10.831564 -4.005569
v 4.732547 10.831557 0.405347
v -0.735497 13.516067 5.105990
v 2.675055 13.516067 4.410916
v -5.518467 13.516067 1.124670
v -3.865177 13.516067 3.850761
v -2.675056 13.516067 -4.410916
v -5.063889 13.516067 -2.031006
v 3.865176 13.516067 -3.850761
v 0.735496 13.516067 -5.105990
v 5.063889 13.516067 2.031006
v 5.518467 13.516067 -1.124670
v -2.057481 16.200569 4.005569
v -4.732549 16.200577 -0.405347
v -0.867394 16.200567 -4.256070
v 4.196461 16.200577 -2.225092
v 3.460954 16.200569 2.880905
v -2.593555 17.859658 1.375149
v 0.536079 17.859644 2.630398
v -2.138966 17.859658 -1.780492
v 1.271574 17.859658 -2.475564
v 2.924861 17.859658 0.250488
vt 0.818181 0.000000
vt 0.772726 0.078731
vt 0.863635 0.078731
vt 0.727272 0.157461
vt 0.681818 0.078731
vt 0.636363 0.157461
vt 0.090909 0.000000
vt 0.045454 0.078731
vt 0.136363 0.078731
vt 0.272727 0.000000
vt 0.227273 0.078731
vt 0.318182 0.078731
vt 0.454545 0.000000
vt 0.409090 0.078731
vt 0.500000 0.078731
vt 0.681818 0.236191
vt 0.909090 0.157461
vt 0.818181 0.157461
vt 0.863635 0.236191
vt 0.181818 0.157461
vt 0.090909 0.157461
vt 0.136363 0.236191
vt 0.363636 0.157461
vt 0.272727 0.157461
vt 0.318182 0.236191
vt 0.545454 0.157461
vt 0.454545 0.157461
vt 0.500000 0.236191
vt 0.772726 0.236191
vt 0.954545 0.236191
vt 0.227273 0.236191
vt 0.409090 0.236191
vt 0.590909 0.236191
vt 0.818181 0.314921
vt 0.727272 0.314921
vt 0.772726 0.393651
vt 1.000000 0.314921
vt 0.909091 0.314921
vt 0.954545 0.393651
vt 0.272727 0.314921
vt 0.181818 0.314921
vt 0.227273 0.393651
vt 0.454545 0.314921
vt 0.363636 0.314921
vt 0.409090 0.393651
vt 0.636363 0.314921
vt 0.545454 0.314921
vt 0.590909 0.393651
vt 0.500000 0.393651
vt 0.545454 0.472382
vt 0.318182 0.393651
vt 0.363636 0.472382
vt 0.136363 0.393651
vt 0.181818 0.472382
vt 0.090909 0.314921
vt 0.863635 0.393651
vt 0.909090 0.472382
vt 0.681818 0.393651
vt 0.727272 0.472382
vt 0.045454 0.236191
vt 0.000000 0.157461
vt 0.590909 0.078731
vt 0.636363 0.000000
vn -0.261792 -0.951971 0.158795
vn -0.261792 -0.951971 0.158795
vn -0.261792 -0.951971 0.158795
vn -0.098898 -0.665983 0.739382
vn -0.098898 -0.665983 0.739382
vn -0.098898 -0.665983 0.739382
vn -0.227307 -0.946730 -0.228107
vn -0.227307 -0.946730 -0.228107
vn -0.227307 -0.946730 -0.228107
vn 0.119903 -0.946720 -0.298906
vn 0.119903 -0.946720 -0.298906
vn 0.119903 -0.946720 -0.298906
vn 0.303087 -0.951960 0.043698
vn 0.303087 -0.951960 0.043698
vn 0.303087 -0.951960 0.043698
vn -0.057802 -0.332510 0.941327
vn -0.057802 -0.332510 0.941327
vn -0.057802 -0.332510 0.941327
vn -0.908335 -0.360114 0.212708
vn -0.908335 -0.360114 0.212708
vn -0.908335 -0.360114 0.212708
vn -0.461714 -0.333310 -0.822025
vn -0.461714 -0.333310 -0.822025
vn -0.461714 -0.333310 -0.822025
vn 0.580196 -0.348198 -0.736295
vn 0.580196 -0.348198 -0.736295
vn 0.580196 -0.348198 -0.736295
vn 0.844575 -0.349790 0.405388
vn 0.844575 -0.349790 0.405388
vn 0.844575 -0.349790 0.405388
vn -0.369103 -0.129601 0.920308
vn -0.369103 -0.129601 0.920308
vn -0.369103 -0.129601 0.920308
vn -0.980471 -0.136896 -0.141196
vn -0.980471 -0.136896 -0.141196
vn -0.980471 -0.136896 -0.141196
vn -0.198100 -0.125600 -0.972101
vn -0.198100 -0.125600 -0.972101
vn -0.198100 -0.125600 -0.972101
vn 0.846984 -0.136897 -0.513690
vn 0.846984 -0.136897 -0.513690
vn 0.846984 -0.136897 -0.513690
vn 0.699792 -0.129599 0.702492
vn 0.699792 -0.129599 0.702492
vn 0.699792 -0.129599 0.702492
vn -0.494283 0.686276 0.533581
vn -0.494283 0.686276 0.533581
vn -0.494283 0.686276 0.533581
vn -0.631583 0.682682 -0.367490
vn -0.631583 0.682682 -0.367490
vn -0.631583 0.682682 -0.367490
vn 0.098898 0.665983 -0.739382
vn 0.098898 0.665983 -0.739382
vn 0.098898 0.665983 -0.739382
vn 0.709214 0.697414 -0.103102
vn 0.709214 0.697414 -0.103102
vn 0.709214 0.697414 -0.103102
vn 0.318702 0.663905 0.676505
vn 0.318702 0.663905 0.676505
vn 0.318702 0.663905 0.676505
vn 0.227307 0.946730 0.228107
vn 0.227307 0.946730 0.228107
vn 0.227307 0.946730 0.228107
vn 0.419902 0.803805 0.421402
vn 0.419902 0.803805 0.421402
vn 0.419902 0.803805 0.421402
vn 0.663676 0.686276 0.297589
vn 0.663676 0.686276 0.297589
vn 0.663676 0.686276 0.297589
vn 0.261792 0.951971 -0.158795
vn 0.261792 0.951971 -0.158795
vn 0.261792 0.951971 -0.158795
vn 0.490216 0.819326 -0.297310
vn 0.490216 0.819326 -0.297310
vn 0.490216 0.819326 -0.297310
vn 0.437380 0.682669 -0.585373
vn 0.437380 0.682669 -0.585373
vn 0.437380 0.682669 -0.585373
vn -0.066202 0.943528 -0.324610
vn -0.066202 0.943528 -0.324610
vn -0.066202 0.943528 -0.324610
vn -0.121199 0.794690 -0.594793
vn -0.121199 0.794690 -0.594793
vn -0.121199 0.794690 -0.594793
vn -0.380393 0.665987 -0.641688
vn -0.380393 0.665987 -0.641688
vn -0.380393 0.665987 -0.641688
vn -0.303087 0.951960 -0.043698
vn -0.303087 0.951960 -0.043698
vn -0.303087 0.951960 -0.043698
vn -0.567505 0.819307 -0.081701
vn -0.567505 0.819307 -0.081701
vn -0.567505 0.819307 -0.081701
vn -0.693002 0.697402 0.182700
vn -0.693002 0.697402 0.182700
vn -0.693002 0.697402 0.182700
vn -0.119903 0.946720 0.298906
vn -0.119903 0.946720 0.298906
vn -0.119903 0.946720 0.298906
vn -0.221408 0.803829 0.552120
vn -0.221408 0.803829 0.552120
vn -0.221408 0.803829 0.552120
vn -0.028502 0.663939 0.747244
vn -0.028502 0.663939 0.747244
vn -0.028502 0.663939 0.747244
vn 0.461714 0.333310 0.822025
vn 0.461714 0.333310 0.822025
vn 0.461714 0.333310 0.822025
vn 0.692457 0.193388 0.695057
vn 0.692457 0.193388 0.695057
vn 0.692457 0.193388 0.695057
vn 0.822083 0.348193 0.450491
vn 0.822083 0.348193 0.450491
vn 0.822083 0.348193 0.450491
vn 0.908335 0.360114 -0.212708
vn 0.908335 0.360114 -0.212708
vn 0.908335 0.360114 -0.212708
vn 0.837049 0.204112 -0.507630
vn 0.837049 0.204112 -0.507630
vn 0.837049 0.204112 -0.507630
vn 0.618514 0.349808 -0.703616
vn 0.618514 0.349808 -0.703616
vn 0.618514 0.349808 -0.703616
vn 0.057802 0.332510 -0.941327
vn 0.057802 0.332510 -0.941327
vn 0.057802 0.332510 -0.941327
vn -0.196191 0.187591 -0.962455
vn -0.196191 0.187591 -0.962455
vn -0.196191 0.187591 -0.962455
vn -0.421525 0.332520 -0.843651
vn -0.421525 0.332520 -0.843651
vn -0.421525 0.332520 -0.843651
vn -0.844575 0.349790 -0.405388
vn -0.844575 0.349790 -0.405388
vn -0.844575 0.349790 -0.405388
vn -0.968943 0.204109 -0.139606
vn -0.968943 0.204109 -0.139606
vn -0.968943 0.204109 -0.139606
vn -0.919122 0.360108 0.159804
vn -0.919122 0.360108 0.159804
vn -0.919122 0.360108 0.159804
vn -0.580196 0.348198 0.736295
vn -0.580196 0.348198 0.736295
vn -0.580196 0.348198 0.736295
vn -0.365206 0.193403 0.910615
vn -0.365206 0.193403 0.910615
vn -0.365206 0.193403 0.910615
vn -0.103205 0.333317 0.937149
vn -0.103205 0.333317 0.937149
vn -0.103205 0.333317 0.937149
vn 0.980471 0.136896 0.141196
vn 0.980471 0.136896 0.141196
vn 0.980471 0.136896 0.141196
vn 0.968943 -0.204109 0.139606
vn 0.968943 -0.204109 0.139606
vn 0.968943 -0.204109 0.139606
vn 0.919122 -0.360108 -0.159804
vn 0.919122 -0.360108 -0.159804
vn 0.919122 -0.360108 -0.159804
vn 0.369103 0.129601 -0.920308
vn 0.369103 0.129601 -0.920308
vn 0.369103 0.129601 -0.920308
vn 0.365206 -0.193403 -0.910615
vn 0.365206 -0.193403 -0.910615
vn 0.365206 -0.193403 -0.910615
vn 0.103205 -0.333317 -0.937149
vn 0.103205 -0.333317 -0.937149
vn 0.103205 -0.333317 -0.937149
vn -0.699792 0.129599 -0.702492
vn -0.699792 0.129599 -0.702492
vn -0.699792 0.129599 -0.702492
vn -0.692457 -0.193388 -0.695057
vn -0.692457 -0.193388 -0.695057
vn -0.692457 -0.193388 -0.695057
vn -0.822083 -0.348193 -0.450491
vn -0.822083 -0.348193 -0.450491
vn -0.822083 -0.348193 -0.450491
vn -0.846984 0.136897 0.513690
vn -0.846984 0.136897 0.513690
vn -0.846984 0.136897 0.513690
vn -0.837049 -0.204112 0.507630
vn -0.837049 -0.204112 0.507630
vn -0.837049 -0.204112 0.507630
vn -0.618514 -0.349808 0.703616
vn -0.618514 -0.349808 0.703616
vn -0.618514 -0.349808 0.703616
vn 0.198100 0.125600 0.972101
vn 0.198100 0.125600 0.972101
vn 0.198100 0.125600 0.972101
vn 0.196191 -0.187591 0.962455
vn 0.196191 -0.187591 0.962455
vn 0.196191 -0.187591 0.962455
vn 0.421525 -0.332520 0.843651
vn 0.421525 -0.332520 0.843651
vn 0.421525 -0.332520 0.843651
vn 0.631583 -0.682682 0.367490
vn 0.631583 -0.682682 0.367490
vn 0.631583 -0.682682 0.367490
vn 0.567505 -0.819307 0.081701
vn 0.567505 -0.819307 0.081701
vn 0.567505 -0.819307 0.081701
vn 0.693002 -0.697402 -0.182700
vn 0.693002 -0.697402 -0.182700
vn 0.693002 -0.697402 -0.182700
vn 0.494283 -0.686276 -0.533581
vn 0.494283 -0.686276 -0.533581
vn 0.494283 -0.686276 -0.533581
vn 0.221408 -0.803829 -0.552120
vn 0.221408 -0.803829 -0.552120
vn 0.221408 -0.803829 -0.552120
vn 0.028502 -0.663939 -0.747244
vn 0.028502 -0.663939 -0.747244
vn 0.028502 -0.663939 -0.747244
vn -0.318702 -0.663905 -0.676505
vn -0.318702 -0.663905 -0.676505
vn -0.318702 -0.663905 -0.676505
vn -0.419902 -0.803805 -0.421402
vn -0.419902 -0.803805 -0.421402
vn -0.419902 -0.803805 -0.421402
vn -0.663676 -0.686276 -0.297589
vn -0.663676 -0.686276 -0.297589
vn -0.663676 -0.686276 -0.297589
vn 0.380393 -0.665987 0.641688
vn 0.380393 -0.665987 0.641688
vn 0.380393 -0.665987 0.641688
vn 0.121199 -0.794690 0.594793
vn 0.121199 -0.794690 0.594793
vn 0.121199 -0.794690 0.594793
vn 0.066202 -0.943528 0.324610
vn 0.066202 -0.943528 0.324610
vn 0.066202 -0.943528 0.324610
vn -0.709214 -0.697414 0.103102
vn -0.709214 -0.697414 0.103102
vn -0.709214 -0.697414 0.103102
vn -0.490216 -0.819326 0.297310
vn -0.490216 -0.819326 0.297310
vn -0.490216 -0.819326 0.297310
vn -0.437380 -0.682669 0.585373
vn -0.437380 -0.682669 0.585373
vn -0.437380 -0.682669 0.585373
g polySurface26
usemtl initialShadingGroup
f 1/1/1 14/2/2 13/3/3
f 2/4/4 14/5/5 16/6/6
f 1/7/7 13/8/8 18/9/9
f 1/10/10 18/11/11 20/12/12
f 1/13/13 20/14/14 17/15/15
f 2/4/16 16/6/17 23/16/18
f 3/17/19 15/18/20 25/19/21
f 4/20/22 19/21/23 27/22/24
f 5/23/25 21/24/26 29/25/27
f 6/26/28 22/27/29 31/28/30
f 2/4/31 23/16/32 26/29/33
f 3/17/34 25/19/35 28/30/36
f 4/20/37 27/22/38 30/31/39
f 5/23/40 29/25/41 32/32/42
f 6/26/43 31/28/44 24/33/45
f 7/34/46 33/35/47 38/36/48
f 8/37/49 34/38/50 40/39/51
f 9/40/52 35/41/53 41/42/54
f 10/43/55 36/44/56 42/45/57
f 11/46/58 37/47/59 39/48/60
f 39/48/61 42/49/62 12/50/63
f 39/48/64 37/47/65 42/49/66
f 37/47/67 10/43/68 42/49/69
f 42/45/70 41/51/71 12/52/72
f 42/45/73 36/44/74 41/51/75
f 36/44/76 9/40/77 41/51/78
f 41/42/79 40/53/80 12/54/81
f 41/42/82 35/41/83 40/53/84
f 35/41/85 8/55/86 40/53/87
f 40/39/88 38/56/89 12/57/90
f 40/39/91 34/38/92 38/56/93
f 34/38/94 7/34/95 38/56/96
f 38/36/97 39/58/98 12/59/99
f 38/36/100 33/35/101 39/58/102
f 33/35/103 11/46/104 39/58/105
f 24/33/106 37/47/107 11/46/108
f 24/33/109 31/28/110 37/47/111
f 31/28/112 10/43/113 37/47/114
f 32/32/115 36/44/116 10/43/117
f 32/32/118 29/25/119 36/44/120
f 29/25/121 9/40/122 36/44/123
f 30/31/124 35/41/125 9/40/126
f 30/31/127 27/22/128 35/41/129
f 27/22/130 8/55/131 35/41/132
f 28/30/133 34/38/134 8/37/135
f 28/30/136 25/19/137 34/38/138
f 25/19/139 7/34/140 34/38/141
f 26/29/142 33/35/143 7/34/144
f 26/29/145 23/16/146 33/35/147
f 23/16/148 11/46/149 33/35/150
f 31/28/151 32/32/152 10/43/153
f 31/28/154 22/27/155 32/32/156
f 22/27/157 5/23/158 32/32/159
f 29/25/160 30/31/161 9/40/162
f 29/25/163 21/24/164 30/31/165
f 21/24/166 4/20/167 30/31/168
f 27/22/169 28/60/170 8/55/171
f 27/22/172 19/21/173 28/60/174
f 19/21/175 3/61/176 28/60/177
f 25/19/178 26/29/179 7/34/180
f 25/19/181 15/18/182 26/29/183
f 15/18/184 2/4/185 26/29/186
f 23/16/187 24/33/188 11/46/189
f 23/16/190 16/6/191 24/33/192
f 16/6/193 6/26/194 24/33/195
f 17/15/196 22/27/197 6/26/198
f 17/15/199 20/14/200 22/27/201
f 20/14/202 5/23/203 22/27/204
f 20/12/205 21/24/206 5/23/207
f 20/12/208 18/11/209 21/24/210
f 18/11/211 4/20/212 21/24/213
f 18/9/214 19/21/215 4/20/216
f 18/9/217 13/8/218 19/21/219
f 13/8/220 3/61/221 19/21/222
f 16/6/223 17/62/224 6/26/225
f 16/6/226 14/5/227 17/62/228
f 14/5/229 1/63/230 17/62/231
f 13/3/232 15/18/233 3/17/234
f 13/3/235 14/2/236 15/18/237
f 14/2/238 2/4/239 15/18/240
